<svg xmlns="http://www.w3.org/2000/svg" xmlns:xlink="http://www.w3.org/1999/xlink" id="Layer_1" x="0" y="0" enable-background="new 0 0 774 666" version="1.1" viewBox="0 0 774 666" xml:space="preserve"><style type="text/css">.st0{fill:#aee2f4}.st1{fill:#64afdd}.st2{fill:#dce9ef}.st3{fill:#b4bcc1}.st4{fill:#f7f6e7}.st10,.st11{stroke-width:2;stroke-linecap:round;stroke-linejoin:round;stroke-miterlimit:10}.st5{fill:none;stroke:#3389ff}.st5,.st6,.st7,.st8,.st9{stroke-width:2;stroke-linecap:round;stroke-linejoin:round;stroke-miterlimit:10}.st6,.st7{fill:#c7e0ff;stroke:#2e3842}.st7{fill:#f2bdbd}.st10,.st11{fill:none}.st8,.st9{fill:none;stroke:#f7dcdc}.st9{stroke:#7d878e}.st10{stroke:#b4bcc1}.st11{stroke:#eef6ff}.st12{opacity:.2;fill:#3389ff}.st13{fill:none;stroke:#e29393;stroke-width:2;stroke-linecap:round;stroke-linejoin:round;stroke-miterlimit:10}.st14{fill:#fff}.st15{fill:#2e3842}.st16{fill:#f2bdbd;stroke:#c66a7f;stroke-width:2;stroke-linecap:round;stroke-linejoin:round;stroke-miterlimit:10}.st17{fill:#c66a7f}.st18{fill:#3389ff}.st19,.st20{fill:none;stroke:#fff;stroke-width:2;stroke-linecap:round;stroke-linejoin:round;stroke-miterlimit:10}.st20{fill:#efebbf;stroke:#2e3842}.st21{fill:#fcfbeb}.st22{fill:none;stroke:#cec395;stroke-width:2;stroke-linecap:round;stroke-linejoin:round;stroke-miterlimit:10}.st23{fill:#f9c553}.st24,.st25{fill:#d7d7f9;stroke:#2e3842;stroke-width:2;stroke-linecap:round;stroke-linejoin:round;stroke-miterlimit:10}.st25{fill:none;stroke:#ededf9}.st26{fill:#b5b5ea}.st27,.st28{fill-rule:evenodd;clip-rule:evenodd}.st27{fill:#d6e2b3;stroke:#2e3842;stroke-width:2;stroke-linecap:round;stroke-linejoin:round;stroke-miterlimit:10}.st28{fill:#fff}.st29{fill:#77ba61}.st30,.st31{fill:none}.st30,.st31,.st32,.st33,.st34,.st35{stroke-width:2;stroke-miterlimit:10}.st30{fill-rule:evenodd;clip-rule:evenodd;stroke:#e7f7dc;stroke-linecap:round;stroke-linejoin:round}.st31{stroke:#3389ff}.st32{fill:#c7e0ff;stroke:#5587c4}.st32,.st33,.st34,.st35{stroke-linecap:round;stroke-linejoin:round}.st33{fill:#f2bdbd;stroke:#d6516b}.st34{fill:#d6dde5;stroke:#92979b}.st35{fill:none;stroke:#e8ecef}.st36{fill:#d6516b}.st37{fill:#bae8ca;stroke:#57c178}.st37,.st38,.st39,.st40,.st41,.st42,.st43,.st44,.st45{stroke-width:2;stroke-linecap:round;stroke-linejoin:round;stroke-miterlimit:10}.st38{fill:none;stroke:#dcf4e5}.st39{fill:#c1bae5;stroke:#585ebf}.st40{fill:none;stroke:#e4ddf2}.st41{fill:#aee2f4;stroke:#64afdd}.st42{fill:none;stroke:#dce9ef}.st43{fill:#f7c38b;stroke:#e57e5e}.st44,.st45{fill:none;stroke:#f4e5d9}.st45{stroke:#e57e5e}.st46{fill:#4ca9d8}.st47{fill:#c1bae5}.st48{fill:#585ebf}.st49{fill:#e4ddf2}.st50{fill:#bae8ca}.st51{fill:#57c178}.st52{fill:#dcf4e5}.st53{fill:#d6d6f8;stroke:#767ecc}.st53,.st54,.st55,.st56,.st57{stroke-width:2;stroke-linecap:round;stroke-linejoin:round;stroke-miterlimit:10}.st54{stroke:#ebe9f2}.st54,.st55,.st56{fill:none}.st55{stroke:#b5b5ea}.st56{stroke:#767ecc}.st57{fill:#efebbf;stroke:#d6a938}.st58{fill:#ecb32d}.st59{fill:#63c1a0}.st60{fill:#e01a59}.st61{fill:#331433}.st62{fill:#d62027}.st63{fill:#89d3df}.st64{fill:#258b74}.st65{fill:#819c3c}.st66{fill:#4cc159}.st67{fill:#202020}.st68{fill:#f2bdbd}.st69{fill:#f7dcdc}.st70{fill:#f7c38b}.st71{fill:#e57e5e}.st72{fill:#f4e5d9}.st73{fill:#d6dde5}.st74{fill:#92979b}.st75{fill:#e8ecef}.st76{fill:#a8b2ba}.st77{fill:#b3bbbf}.st78,.st79{fill:none;stroke:#b3bbbf;stroke-width:1.2;stroke-miterlimit:10}.st79{stroke:#fff;stroke-width:1.5}</style><g><path d="M353.2,299.6h-15.4c-3.5,0-6.3-2.8-6.3-6.3v-22.9c0-3.5,2.8-6.3,6.3-6.3H359c0.3,0,0.5,0.2,0.5,0.5v28.7 C359.5,296.8,356.7,299.6,353.2,299.6z" class="st0"/><path d="M354,300.1h-17c-3.3,0-6-2.7-6-6v-24.5c0-3.3,2.7-6,6-6h19.9c1.7,0,3.1,1.4,3.1,3.1v27.4 C360,297.4,357.3,300.1,354,300.1z M337,264.6c-2.7,0-5,2.2-5,5v24.5c0,2.7,2.2,5,5,5h17c2.7,0,5-2.2,5-5v-27.4 c0-1.1-0.9-2.1-2.1-2.1H337z" class="st1"/></g><g><path d="M354.1,299.1h-17.2c-2.8,0-5-2.3-5-5v-24.6c0-2.8,2.3-5,5-5H357c1.2,0,2.2,1,2.2,2.2v27.4 C359.1,296.9,356.9,299.1,354.1,299.1z M336.9,265.5c-2.2,0-4,1.8-4,4v24.6c0,2.2,1.8,4,4,4h17.2c2.2,0,4-1.8,4-4v-27.4 c0-0.6-0.5-1.1-1.1-1.1H336.9z" class="st2"/></g><path d="M150.8,461c0.2,0.4,0.2,0.9,0.2,1.3v1.6h2v-1.6c0-0.7-0.1-1.4-0.4-2c0,0,0,0,0,0l-1.1-3.1	c-0.4-1.2-0.3-2.5,0.4-3.5c0.6-1,1.6-1.6,2.7-1.7c0.1,0,0.3,0,0.4,0h10.2c2.4,0,4.6,0.9,6.3,2.6l4.7,4.7c2.1,2.1,4.8,3.2,7.7,3.2	h7.5c0.2,0,0.4,0,0.6,0v-2c-0.2,0-0.4,0-0.6,0h-7.5c-2.4,0-4.6-0.9-6.3-2.6l-4.7-4.7c-2.1-2.1-4.8-3.2-7.7-3.2H155	c-0.2,0-0.4,0-0.6,0c-1.7,0.2-3.2,1.1-4.2,2.6c-1,1.6-1.2,3.5-0.6,5.3L150.8,461z" class="st3"/><path d="M504.5,475.5c0,0-2,10-18,16l11,7v-7l4.7,0.1l2.3-1.1l1-3L504.5,475.5z" class="st4"/><path d="M453,383h-23c-3.3,0-6-2.7-6-6v-23c0-3.3,2.7-6,6-6h23c3.3,0,6,2.7,6,6v23C459,380.3,456.3,383,453,383z" class="st5"/><path d="M398.4,383h-23c-3.3,0-6-2.7-6-6v-11.7c0-9.5,7.8-17.3,17.3-17.3h0c9.7,0,17.7,8,17.7,17.7V377	C404.4,380.3,401.7,383,398.4,383z" class="st5"/><path d="M511,383h-23c-3.3,0-6-2.7-6-6v-23c0-3.3,2.7-6,6-6h23c3.3,0,6,2.7,6,6v23C517,380.3,514.3,383,511,383z" class="st5"/><path d="M615,383h-23c-3.3,0-6-2.7-6-6v-13c0-3.3,2.7-6,6-6h23c3.3,0,6,2.7,6,6v13C621,380.3,618.3,383,615,383z" class="st5"/><path d="M440.7,362h-8.5c-1.2,0-2.3-1-2.3-2.3v-3.5c0-1.2,1-2.3,2.3-2.3h8.5c1.2,0,2.3,1,2.3,2.3v3.5	C443,361,442,362,440.7,362z" class="st5"/><path d="M555.7,360h-6.5c-1.2,0-2.3-1-2.3-2.3v-7.5c0-1.2,1-2.3,2.3-2.3h6.5c1.2,0,2.3,1,2.3,2.3v7.5	C558,359,557,360,555.7,360z" class="st5"/><line x1="430" x2="453" y1="368" y2="368" class="st5"/><line x1="592" x2="615" y1="353" y2="353" class="st5"/><line x1="596" x2="611" y1="348" y2="348" class="st5"/><path d="M303.2,505h-42.4c-5.9,0-10.8-4.9-10.8-10.8v-23.4c0-5.9,4.9-10.8,10.8-10.8h42.4c5.9,0,10.8,4.9,10.8,10.8	v23.4C314,500.1,309.1,505,303.2,505z" class="st6"/><path d="M402.2,497h-19.4c-5.9,0-10.8-4.9-10.8-10.8v-30.4c0-5.9,4.9-10.8,10.8-10.8h25.1c2.8,0,5.1,2.3,5.1,5.1v36.1	C413,492.1,408.1,497,402.2,497z" class="st7"/><path d="M402.1,497h-19.2c-4.9,0-8.9-4-8.9-8.9v-32.2c0-4.9,4-8.9,8.9-8.9h24.9c1.8,0,3.3,1.5,3.3,3.3v37.9	C411,493,407,497,402.1,497z" class="st8"/><line x1="261.1" x2="303.7" y1="454" y2="454" class="st9"/><line x1="430" x2="443" y1="374" y2="374" class="st5"/><path d="M203,382h-23c-3.3,0-6-2.7-6-6v-23c0-3.3,2.7-6,6-6h23c3.3,0,6,2.7,6,6v23C209,379.3,206.3,382,203,382z" class="st5"/><path d="M190.7,361h-8.5c-1.2,0-2.3-1-2.3-2.3v-3.5c0-1.2,1-2.3,2.3-2.3h8.5c1.2,0,2.3,1,2.3,2.3v3.5	C193,360,192,361,190.7,361z" class="st5"/><line x1="180" x2="203" y1="367" y2="367" class="st5"/><line x1="180" x2="193" y1="373" y2="373" class="st5"/><path d="M335,383h-23c-3.3,0-6-2.7-6-6v-23c0-3.3,2.7-6,6-6h23c3.3,0,6,2.7,6,6v23C341,380.3,338.3,383,335,383z" class="st5"/><line x1="312" x2="335" y1="357" y2="357" class="st5"/><line x1="312" x2="325" y1="363" y2="363" class="st5"/><line x1="312" x2="325" y1="369" y2="369" class="st5"/><path d="M274,383h-23c-3.3,0-6-2.7-6-6v-13c0-3.3,2.7-6,6-6h23c3.3,0,6,2.7,6,6v13C280,380.3,277.3,383,274,383z" class="st5"/><line x1="252" x2="272" y1="367" y2="367" class="st5"/><line x1="252" x2="262" y1="374" y2="374" class="st5"/><path d="M493,377h16c0,0,3,0,2-3l-7-10L493,377z" class="st5"/><circle cx="493" cy="360" r="4" class="st5"/><circle cx="541" cy="377" r="6" class="st5"/><circle cx="564" cy="377" r="6" class="st5"/><line x1="549" x2="546" y1="364" y2="369" class="st5"/><line x1="556" x2="559" y1="364" y2="369" class="st5"/><path d="M377.6,358.8l7,10.1c1,1.5,3.1,1.6,4.3,0.3l0,0c1.2-1.3,0.9-3.3-0.6-4.2L377.6,358.8z" class="st5"/><line x1="395" x2="393" y1="356" y2="359" class="st5"/><line x1="267.1" x2="297.7" y1="448" y2="448" class="st10"/><path d="M303.2,503h-42.3c-4.9,0-8.8-4-8.8-8.8v-23.3c0-4.9,4-8.8,8.8-8.8h42.3c4.9,0,8.8,4,8.8,8.8v23.3	C312,499,308,503,303.2,503z" class="st11"/><path d="M303.7,465v14.1c0,2.7-2.2,4.9-4.9,4.9h-33.6c-2.7,0-4.9-2.2-4.9-4.9V465h-2v14.1c0,3.8,3.1,6.9,6.9,6.9h33.6	c3.8,0,6.9-3.1,6.9-6.9V465H303.7z" class="st12"/><line x1="381.1" x2="404" y1="457" y2="457" class="st13"/><line x1="381.1" x2="404" y1="464" y2="464" class="st13"/><line x1="381.1" x2="390" y1="471" y2="471" class="st13"/><g><path d="M369,484h12.3c1.6,0,3.1,1,3.7,2.5l0,0c0.6,1.5,2.1,2.5,3.7,2.5H416c2.2,0,4,1.8,4,4v8c0,2.2-1.8,4-4,4h-47 c-2.2,0-4-1.8-4-4v-13C365,485.8,366.8,484,369,484z" class="st14"/><path d="M366,495v-7c0-1.6,1.3-3,3-3h12.3c1.2,0,2.3,0.7,2.8,1.9c0.8,1.9,2.6,3.1,4.6,3.1H416c1.6,0,3,1.3,3,3v4h2v-4 c0-2.7-2.2-5-5-5h-27.3c-1.2,0-2.3-0.7-2.8-1.9c-0.8-1.9-2.6-3.1-4.6-3.1H369c-2.7,0-5,2.2-5,5v7H366z" class="st15"/></g><path d="M419,501c0,1.6-1.3,3-3,3h-47c-1.6,0-3-1.3-3-3v-4h-2v4c0,2.7,2.2,5,5,5h47c2.7,0,5-2.2,5-5H419z" class="st3"/><path d="M322.2,90h-19.4c-5.9,0-10.8-4.9-10.8-10.8V48.8c0-5.9,4.9-10.8,10.8-10.8h25.1c2.8,0,5.1,2.3,5.1,5.1v36.1	C333,85.1,328.1,90,322.2,90z" class="st16"/><path d="M322.1,90h-19.2c-4.9,0-8.9-4-8.9-8.9V48.9c0-4.9,4-8.9,8.9-8.9h24.9c1.8,0,3.3,1.5,3.3,3.3v37.9	C331,86,327,90,322.1,90z" class="st8"/><line x1="301.1" x2="324" y1="50" y2="50" class="st16"/><line x1="301.1" x2="324" y1="57" y2="57" class="st16"/><line x1="301.1" x2="310" y1="64" y2="64" class="st16"/><g><path d="M289,77h12.3c1.6,0,3.1,1,3.7,2.5l0,0c0.6,1.5,2.1,2.5,3.7,2.5H336c2.2,0,4,1.8,4,4v8c0,2.2-1.8,4-4,4h-47 c-2.2,0-4-1.8-4-4V81C285,78.8,286.8,77,289,77z" class="st14"/><path d="M286,88v-7c0-1.6,1.3-3,3-3h12.3c1.2,0,2.3,0.7,2.8,1.9c0.8,1.9,2.6,3.1,4.6,3.1H336c1.6,0,3,1.3,3,3v4h2v-4 c0-2.7-2.2-5-5-5h-27.3c-1.2,0-2.3-0.7-2.8-1.9c-0.8-1.9-2.6-3.1-4.6-3.1H289c-2.7,0-5,2.2-5,5v7H286z" class="st17"/></g><path d="M339,94c0,1.6-1.3,3-3,3h-47c-1.6,0-3-1.3-3-3v-4h-2v4c0,2.7,2.2,5,5,5h47c2.7,0,5-2.2,5-5H339z" class="st3"/><circle cx="323.9" cy="453.1" r="11.1" class="st18"/><line x1="319" x2="329" y1="453" y2="453" class="st19"/><line x1="324" x2="324" y1="458" y2="448" class="st19"/><circle cx="206.9" cy="453.1" r="11.1" class="st18"/><line x1="202" x2="212" y1="453" y2="453" class="st19"/><line x1="207" x2="207" y1="458" y2="448" class="st19"/><path d="M510.7,445h-37.2c-5.2,0-9.5,4.3-9.5,9.5v13.3c0,2.9,2.3,5.2,5.2,5.2h6.8v6l5.3-3.7c2.1-1.5,4.7-2.3,7.3-2.3	h16c5.2,0,9.5-4.3,9.5-9.5v-15.2C514,446.5,512.5,445,510.7,445z" class="st20"/><g><g><path d="M509.8,448c0.7,0,1.2,0.5,1.2,1.1v13.8c0,3.7-3.2,6.6-7.1,6.6h-15.3c-2.9,0-5.7,0.8-8.1,2.4l-2,1.3v-1.7 c0-1.1-0.9-2-2-2H470c-1.7,0-3-1.2-3-2.8v-12.1c0-3.7,3.2-6.6,7.1-6.6H509.8 M509.8,446h-35.7c-5,0-9.1,3.9-9.1,8.6v12.1 c0,2.6,2.3,4.8,5,4.8h6.5v5.5l5.1-3.4c2-1.4,4.5-2.1,7-2.1h15.3c5,0,9.1-3.9,9.1-8.6v-13.8C513,447.4,511.6,446,509.8,446 L509.8,446z" class="st21"/></g></g><line x1="474.5" x2="503.5" y1="454" y2="454" class="st22"/><line x1="474" x2="492" y1="460" y2="460" class="st22"/><circle cx="472.5" cy="494.5" r="11.5" class="st23"/><circle cx="476.1" cy="492.1" r="1.5" class="st14"/><circle cx="469" cy="492" r="1.5" class="st14"/><path d="M467,497c0,0,6,5,12,0" class="st19"/><path d="M504,476v11.8c0,2.3-1.9,4.2-4.2,4.2H497c-0.6,0-1,0.4-1,1v4.1l-3.7-2.6c-1.9-1.3-4-2.1-6.3-2.4v2	c1.8,0.2,3.6,0.9,5.1,2l5.3,3.7c0.2,0.1,0.4,0.2,0.6,0.2c0.2,0,0.3,0,0.5-0.1c0.3-0.2,0.5-0.5,0.5-0.9v-5h1.8c3.4,0,6.2-2.8,6.2-6.2	V476H504z" class="st3"/><path d="M142,468v-4.5c0-3.6,2.9-6.5,6.5-6.5h15.8c1.7,0,3.4,0.7,4.6,1.9l7.2,7.2c1.2,1.2,2.9,1.9,4.6,1.9h9.8	c8.6,0,15.5,6.9,15.5,15.5v15c0,3.6-2.9,6.5-6.5,6.5h-51.1c-3.6,0-6.5-2.9-6.5-6.5V468z" class="st24"/><path d="M144,469.9V464c0-3.2,1.6-5,5-5h15c1.6,0,2.9,0.9,4,2l8,7.2c1.1,1.1,2.7,1.7,4.3,1.7h9.2	c8,0,14.5,5.5,14.5,13.1v15c0,3.2-1.6,5-5,5h-50c-3.4,0-5-1.8-5-5V469.9z" class="st25"/><g><path d="M164,485c-2.8,0-5-2.2-5-5s2.2-5,5-5s5,2.2,5,5S166.8,485,164,485z M164,477c-1.7,0-3,1.3-3,3s1.3,3,3,3 s3-1.3,3-3S165.7,477,164,477z" class="st26"/></g><g><g><path d="M159,480c0-0.3,0-0.7,0.1-1H156c-0.6,0-1,0.4-1,1s0.4,1,1,1h3.1C159,480.7,159,480.3,159,480z" class="st26"/></g><g><path d="M191,479h-22.1c0.1,0.3,0.1,0.7,0.1,1s0,0.7-0.1,1H191c0.6,0,1-0.4,1-1S191.6,479,191,479z" class="st26"/></g></g><g><path d="M183,496c-2.8,0-5-2.2-5-5s2.2-5,5-5s5,2.2,5,5S185.8,496,183,496z M183,488c-1.7,0-3,1.3-3,3s1.3,3,3,3 s3-1.3,3-3S184.7,488,183,488z" class="st26"/></g><g><g><path d="M188,491c0-0.3,0-0.7-0.1-1h3.1c0.6,0,1,0.4,1,1s-0.4,1-1,1h-3.1C188,491.7,188,491.3,188,491z" class="st26"/></g><g><path d="M156,490h22.1c-0.1,0.3-0.1,0.7-0.1,1s0,0.7,0.1,1H156c-0.6,0-1-0.4-1-1S155.4,490,156,490z" class="st26"/></g></g><circle cx="576.5" cy="470.5" r="29.5" class="st27"/><path d="M571.3,485.7C571.3,485.7,571.3,485.7,571.3,485.7c2.7,0.3,7.2,0.4,13.6-0.6c4.9-1.3,9.1-4.4,9.1-13	c0-3-1.1-5.5-2.8-7.4c0.3-0.7,1.2-3.5-0.3-7.3c0,0-2.3-0.7-7.6,2.8c-2.2-0.6-4.6-0.9-6.9-0.9c-2.4,0-4.7,0.3-6.9,0.9	c-5.3-3.6-7.6-2.8-7.6-2.8c-1.5,3.8-0.6,6.6-0.3,7.3c-1.8,1.9-2.9,4.4-2.9,7.4C558.7,482.6,565.1,485,571.3,485.7z" class="st28"/><path d="M587,471.6c-2.3-2.1-6.1-1-10.5-1c0,0,0,0-0.1,0c0,0,0,0,0,0c-4.4,0-8.2-1.1-10.5,1c-1.4,1.3-1.9,2.8-1.9,4.4	c0,6.8,5.4,7.6,12.4,7.6h0.1c7,0,12.4-0.8,12.4-7.6C588.9,474.3,588.3,472.8,587,471.6z M570.5,479.9c-1.3,0-2.4-1.5-2.4-3.3	c0-1.8,1.1-3.3,2.4-3.3c1.3,0,2.4,1.5,2.4,3.3C572.9,478.4,571.8,479.9,570.5,479.9z M582.3,479.9c-1.3,0-2.4-1.5-2.4-3.3	c0-1.8,1.1-3.3,2.4-3.3s2.4,1.5,2.4,3.3C584.7,478.4,583.6,479.9,582.3,479.9z" class="st29"/><circle cx="576.5" cy="470.5" r="27.5" class="st30"/><path d="M649.8,360v6.5h0c-9.3,1.4-9.4,14.7-0.2,16.3l0.2,0" class="st5"/><path d="M655,376.2h7.6v0c1.4,9.3,14.7,9.4,16.3,0.2l0-0.2" class="st5"/><path d="M671.2,371v-6.7h0c9.3-1.4,9.4-14.7,0.2-16.3l-0.2,0" class="st5"/><path d="M666,354.7h-6.6v0c-1.4-9.3-14.7-9.4-16.3-0.2l0,0.2" class="st5"/><ellipse cx="651.2" cy="356.3" class="st31" rx="3.7" ry="3.7" transform="matrix(0.7071 -0.7071 0.7071 0.7071 -61.2347 564.8661)"/><ellipse cx="670.6" cy="374.7" class="st31" rx="3.7" ry="3.7" transform="matrix(0.7071 -0.7071 0.7071 0.7071 -68.5406 583.9185)"/><ellipse cx="669.7" cy="356.3" class="st31" rx="3.7" ry="3.7" transform="matrix(0.7071 -0.7071 0.7071 0.7071 -55.8245 577.9276)"/><ellipse cx="651.4" cy="374.7" class="st31" rx="3.7" ry="3.7" transform="matrix(0.7071 -0.7071 0.7071 0.7071 -74.1697 570.3287)"/><path d="M614,362v2.4c0,1.7-1.4,3.1-3.1,3.1h-14.8c-1.7,0-3.1-1.4-3.1-3.1V362h-2v2.4c0,2.8,2.3,5.1,5.1,5.1h14.8	c2.8,0,5.1-2.3,5.1-5.1V362H614z" class="st18"/><path d="M713.8,363.8c2.5-1.5,4.2-4.2,4.2-7.3c0-4.7-3.8-8.5-8.5-8.5s-8.5,3.8-8.5,8.5c0,3,1.5,5.6,3.9,7.1	c-6.3,1.9-10.9,8.1-10.9,15.4c0,0.4,0,0.8,0.1,1.2c5.4,1.8,17.2,4.5,29.9-0.3c0-0.3,0-0.6,0-0.8C724,371.9,719.7,366,713.8,363.8z" class="st5"/><path d="M50,163.3v-5.9c0-4.6,3.8-8.4,8.4-8.4h20.6c2.2,0,4.4,0.9,5.9,2.5l9.4,9.4c1.6,1.6,3.7,2.5,5.9,2.5h12.7	c11.1,0,20.1,9,20.1,20.1v19.5c0,4.6-3.8,8.4-8.4,8.4H58.4c-4.6,0-8.4-3.8-8.4-8.4V163.3z" class="st32"/><path d="M51.2,164v-6.2c0-4.1,3.3-7.4,7.4-7.4h20.2c2.1,0,3.4,0.8,4.9,2.3l8.9,8.9c1.5,1.5,5,3.2,7.1,3.2h12.4	c10.6,0,19.3,7.9,19.3,18.5v18.9c0,4.1-3.3,7.5-7.5,7.5H58.7c-4.1,0-7.5-3.3-7.5-7.5V164z" class="st11"/><line x1="105.6" x2="68.8" y1="164.9" y2="164.9" class="st11"/><path d="M211.2,214.8h-33.4c-5.9,0-10.8-4.9-10.8-10.8v-48.2c0-5.9,4.9-10.8,10.8-10.8h39.1c2.8,0,5.1,2.3,5.1,5.1V204	C222,209.9,217.1,214.8,211.2,214.8z" class="st33"/><path d="M211.4,212.8h-33.9c-4.9,0-8.9-4-8.9-8.9v-48.3c0-4.9,4-8.9,8.9-8.9h39.5c1.8,0,3.3,1.5,3.3,3.3v53.9	C220.3,208.8,216.3,212.8,211.4,212.8z" class="st8"/><path d="M586.2,214.8h-33.4c-5.9,0-10.8-4.9-10.8-10.8v-48.2c0-5.9,4.9-10.8,10.8-10.8h39.1c2.8,0,5.1,2.3,5.1,5.1V204	C597,209.9,592.1,214.8,586.2,214.8z" class="st34"/><path d="M586.4,212.8h-33.9c-4.9,0-8.9-4-8.9-8.9v-48.3c0-4.9,4-8.9,8.9-8.9h39.5c1.8,0,3.3,1.5,3.3,3.3v53.9	C595.3,208.8,591.3,212.8,586.4,212.8z" class="st35"/><line x1="554.2" x2="584.9" y1="161" y2="161" class="st34"/><line x1="554.2" x2="584.9" y1="170.4" y2="170.4" class="st34"/><line x1="554.2" x2="566.1" y1="179.8" y2="179.8" class="st34"/><path d="M207.8,183.4c-0.4-0.9-1.5-1.3-3.3-1.3c-1,0-2.3,0.1-3.8,0.4c-2.1-2.2-4.2-5.4-5.7-8.6	c1.5-6.4,0.8-7.3,0.4-7.7c-0.4-0.5-0.9-1.2-1.4-1.2c-0.2,0-0.9,0.1-1.1,0.2c-0.6,0.2-1,0.7-1.3,1.4c-0.8,1.9,0.3,5.1,1.4,7.5	c-1,3.9-2.6,8.5-4.3,12.2c-4.3,2-6.5,3.9-6.7,5.8c-0.1,0.7,0.1,1.7,1.3,2.6c0.3,0.2,0.7,0.4,1.1,0.4c1,0,2-0.8,3.1-2.4	c0.8-1.2,1.7-2.8,2.7-4.8c3-1.3,6.7-2.5,9.9-3.2c1.8,1.7,3.4,2.6,4.7,2.6c1,0,1.9-0.5,2.5-1.4C208,184.9,208.2,184.1,207.8,183.4z M184.4,193.1c-0.5-0.4-0.5-0.7-0.5-0.8c0.1-0.6,1-1.8,3.5-3.1C185.5,192.6,184.6,193,184.4,193.1z M193.6,167.1	c0,0,1.2,1.3,0.1,3.7C192.1,169,193.5,167.1,193.6,167.1z M191.3,185.2c1.1-2.7,2.2-5.8,3-8.6c1.3,2.3,2.8,4.5,4.3,6.3	C196.2,183.5,193.6,184.3,191.3,185.2z M205.8,184.7c-0.3,0.5-1.1,0.5-1.4,0.5c-0.6,0-0.8-0.4-1.7-1.1c0.8-0.1,1.5-0.1,2-0.1	c1,0,1.2,0.1,1.3,0.2C206.1,184.3,206,184.5,205.8,184.7z" class="st36"/><path d="M510.2,213.8h-33.4c-5.9,0-10.8-4.9-10.8-10.8v-48.2c0-5.9,4.9-10.8,10.8-10.8h39.1c2.8,0,5.1,2.3,5.1,5.1V203	C521,208.9,516.1,213.8,510.2,213.8z" class="st37"/><path d="M510.4,211.8h-33.9c-4.9,0-8.9-4-8.9-8.9v-48.3c0-4.9,4-8.9,8.9-8.9h39.5c1.8,0,3.3,1.5,3.3,3.3v53.9	C519.3,207.8,515.3,211.8,510.4,211.8z" class="st38"/><line x1="508" x2="480" y1="169" y2="169" class="st37"/><line x1="480" x2="508" y1="179" y2="179" class="st37"/><line x1="480" x2="508" y1="189" y2="189" class="st37"/><line x1="480" x2="480" y1="169" y2="189" class="st37"/><line x1="508" x2="508" y1="169" y2="189" class="st37"/><line x1="494" x2="494" y1="169" y2="189" class="st37"/><path d="M436.2,213.8h-33.4c-5.9,0-10.8-4.9-10.8-10.8v-48.2c0-5.9,4.9-10.8,10.8-10.8h39.1c2.8,0,5.1,2.3,5.1,5.1V203	C447,208.9,442.1,213.8,436.2,213.8z" class="st39"/><path d="M436.4,211.8h-33.9c-4.9,0-8.9-4-8.9-8.9v-48.3c0-4.9,4-8.9,8.9-8.9h39.5c1.8,0,3.3,1.5,3.3,3.3v53.9	C445.3,207.8,441.3,211.8,436.4,211.8z" class="st40"/><path d="M362.2,214.8h-33.4c-5.9,0-10.8-4.9-10.8-10.8v-48.2c0-5.9,4.9-10.8,10.8-10.8h39.1c2.8,0,5.1,2.3,5.1,5.1V204	C373,209.9,368.1,214.8,362.2,214.8z" class="st41"/><path d="M362.4,212.8h-33.9c-4.9,0-8.9-4-8.9-8.9v-48.3c0-4.9,4-8.9,8.9-8.9h39.5c1.8,0,3.3,1.5,3.3,3.3v53.9	C371.3,208.8,367.3,212.8,362.4,212.8z" class="st42"/><path d="M288.2,214.8h-33.4c-5.9,0-10.8-4.9-10.8-10.8v-48.2c0-5.9,4.9-10.8,10.8-10.8h39.1c2.8,0,5.1,2.3,5.1,5.1V204	C299,209.9,294.1,214.8,288.2,214.8z" class="st43"/><path d="M288.4,212.8h-33.9c-4.9,0-8.9-4-8.9-8.9v-48.3c0-4.9,4-8.9,8.9-8.9h39.5c1.8,0,3.3,1.5,3.3,3.3v53.9	C297.3,208.8,293.3,212.8,288.4,212.8z" class="st44"/><path d="M275.5,167c-0.1,0-0.2,0-0.3,0v9h9.7C284.6,171,280.5,167,275.5,167z" class="st45"/><path d="M271,180v-13c-7.2,0.3-13,6.2-13,13.5c0,7.5,6,13.5,13.5,13.5c7.5,0,13.5-6,13.5-13.5c0-0.2,0-0.3,0-0.5H271z" class="st45"/><g><path d="M345.6,178.9l-3.9,10.7h-1.3l-6.2-16.7c-0.2-0.7-0.8-0.9-1.6-1v-0.9h7.7v0.9c-1.4,0.1-1.9,0.4-1.9,1.1 c0,0.4,0.2,0.8,0.3,1.3l3.6,10.1l2.6-7.1l-1.4-4.3c-0.2-0.7-0.7-0.9-1.4-1v-0.9h7.6v0.9c-1.6,0-2.1,0.3-2.1,1.1 c0,0.4,0.1,0.8,0.3,1.3l3.2,9.8l3.3-9.8c0.2-0.5,0.3-0.9,0.3-1.2c0-0.8-0.5-1.1-2.1-1.2v-0.9h5.2v0.9c-0.7,0.1-1.3,0.3-1.5,1 l-5.8,16.7h-1.3L345.6,178.9z" class="st46"/></g><g><path d="M345.5,281.5l-2.2,6h-0.7l-3.5-9.4c-0.1-0.4-0.5-0.5-0.9-0.5V277h4.3v0.5c-0.8,0-1.1,0.2-1.1,0.6 c0,0.2,0.1,0.4,0.2,0.7l2,5.7l1.4-4l-0.8-2.4c-0.1-0.4-0.4-0.5-0.8-0.5V277h4.3v0.5c-0.9,0-1.2,0.2-1.2,0.6c0,0.2,0.1,0.4,0.2,0.8 l1.8,5.5l1.9-5.5c0.1-0.3,0.2-0.5,0.2-0.7c0-0.4-0.3-0.6-1.2-0.7V277h2.9v0.5c-0.4,0.1-0.7,0.1-0.9,0.5l-3.3,9.4h-0.7L345.5,281.5z" class="st46"/></g><g><path d="M427.2,299.6h-15.4c-3.5,0-6.3-2.8-6.3-6.3v-22.9c0-3.5,2.8-6.3,6.3-6.3H433c0.3,0,0.5,0.2,0.5,0.5v28.7 C433.5,296.8,430.7,299.6,427.2,299.6z" class="st47"/><path d="M428,300.1h-17c-3.3,0-6-2.7-6-6v-24.5c0-3.3,2.7-6,6-6h19.9c1.7,0,3.1,1.4,3.1,3.1v27.4 C434,297.4,431.3,300.1,428,300.1z M411,264.6c-2.7,0-5,2.2-5,5v24.5c0,2.7,2.2,5,5,5h17c2.7,0,5-2.2,5-5v-27.4 c0-1.1-0.9-2.1-2.1-2.1H411z" class="st48"/></g><g><path d="M428.1,299.1h-17.2c-2.8,0-5-2.3-5-5v-24.6c0-2.8,2.3-5,5-5H431c1.2,0,2.2,1,2.2,2.2v27.4 C433.1,296.9,430.9,299.1,428.1,299.1z M410.9,265.5c-2.2,0-4,1.8-4,4v24.6c0,2.2,1.8,4,4,4h17.2c2.2,0,4-1.8,4-4v-27.4 c0-0.6-0.5-1.1-1.1-1.1H410.9z" class="st49"/></g><path d="M414,186.6v-16c0-1.5,1.7-2.3,2.9-1.4l11.1,8.4c1,0.7,0.9,2.2-0.1,2.9l-11.1,7.7	C415.6,188.9,414,188,414,186.6z" class="st39"/><g><path d="M416.7,285.6v-8c0-0.7,0.8-1.2,1.4-0.7l5.6,4.2c0.5,0.4,0.5,1.1,0,1.5l-5.6,3.8 C417.5,286.7,416.7,286.3,416.7,285.6z" class="st47"/><path d="M417.6,287c-0.2,0-0.4-0.1-0.7-0.2c-0.5-0.2-0.7-0.7-0.7-1.2v-8c0-0.5,0.3-1,0.8-1.2c0.5-0.2,1-0.2,1.5,0.1 l5.6,4.2c0.4,0.3,0.6,0.7,0.6,1.1c0,0.4-0.2,0.9-0.6,1.1l-5.6,3.8C418.1,286.9,417.8,287,417.6,287z M417.6,277.2 c-0.1,0-0.1,0-0.2,0c-0.1,0-0.2,0.1-0.2,0.4v8c0,0.2,0.1,0.3,0.2,0.3c0.1,0,0.2,0.1,0.4,0l5.6-3.8c0.1-0.1,0.2-0.2,0.2-0.3 c0-0.1-0.1-0.2-0.2-0.3l-5.6-4.2C417.7,277.2,417.6,277.2,417.6,277.2z" class="st48"/></g><g><path d="M502.2,299.6h-15.4c-3.5,0-6.3-2.8-6.3-6.3v-22.9c0-3.5,2.8-6.3,6.3-6.3H508c0.3,0,0.5,0.2,0.5,0.5v28.7 C508.5,296.8,505.7,299.6,502.2,299.6z" class="st50"/><path d="M503,300.1h-17c-3.3,0-6-2.7-6-6v-24.5c0-3.3,2.7-6,6-6h19.9c1.7,0,3.1,1.4,3.1,3.1v27.4 C509,297.4,506.3,300.1,503,300.1z M486,264.6c-2.7,0-5,2.2-5,5v24.5c0,2.7,2.2,5,5,5h17c2.7,0,5-2.2,5-5v-27.4 c0-1.1-0.9-2.1-2.1-2.1H486z" class="st51"/></g><g><path d="M503.1,299.1h-17.2c-2.8,0-5-2.3-5-5v-24.6c0-2.8,2.3-5,5-5H506c1.2,0,2.2,1,2.2,2.2v27.4 C508.1,296.9,505.9,299.1,503.1,299.1z M485.9,265.5c-2.2,0-4,1.8-4,4v24.6c0,2.2,1.8,4,4,4h17.2c2.2,0,4-1.8,4-4v-27.4 c0-0.6-0.5-1.1-1.1-1.1H485.9z" class="st52"/></g><path d="M238.2,97.8h-33.4c-5.9,0-10.8-4.9-10.8-10.8V48.8c0-5.9,4.9-10.8,10.8-10.8h39.1c2.8,0,5.1,2.3,5.1,5.1V87	C249,92.9,244.1,97.8,238.2,97.8z" class="st53"/><path d="M238.4,95.8h-33.9c-4.9,0-8.9-4-8.9-8.9V48.6c0-4.9,4-8.9,8.9-8.9h39.5c1.8,0,3.3,1.5,3.3,3.3v43.9	C247.3,91.8,243.3,95.8,238.4,95.8z" class="st54"/><line x1="204" x2="240" y1="53" y2="53" class="st55"/><line x1="220" x2="239" y1="69" y2="69" class="st56"/><line x1="220" x2="231" y1="74" y2="74" class="st56"/><circle cx="206" cy="47" r="2" class="st26"/><circle cx="213" cy="47" r="2" class="st26"/><circle cx="220" cy="47" r="2" class="st26"/><path d="M211,76h-5c-1.1,0-2-0.9-2-2v-5c0-1.1,0.9-2,2-2h5c1.1,0,2,0.9,2,2v5C213,75.1,212.1,76,211,76z" class="st56"/><path d="M409.5,67.5c0,0-2,10-18,16l11,7v-7l4.7,0.1l2.3-1.1l1-3L409.5,67.5z" class="st4"/><path d="M415.7,37h-37.2c-5.2,0-9.5,4.3-9.5,9.5v13.3c0,2.9,2.3,5.2,5.2,5.2h6.8v6l5.3-3.7c2.1-1.5,4.7-2.3,7.3-2.3h16	c5.2,0,9.5-4.3,9.5-9.5V40.3C419,38.5,417.5,37,415.7,37z" class="st57"/><g><g><path d="M414.8,40c0.7,0,1.2,0.5,1.2,1.1v13.8c0,3.7-3.2,6.6-7.1,6.6h-15.3c-2.9,0-5.7,0.8-8.1,2.4l-2,1.3v-1.7 c0-1.1-0.9-2-2-2H375c-1.7,0-3-1.2-3-2.8V46.6c0-3.7,3.2-6.6,7.1-6.6H414.8 M414.8,38h-35.7c-5,0-9.1,3.9-9.1,8.6v12.1 c0,2.6,2.3,4.8,5,4.8h6.5V69l5.1-3.4c2-1.4,4.5-2.1,7-2.1h15.3c5,0,9.1-3.9,9.1-8.6V41.1C418,39.4,416.6,38,414.8,38L414.8,38z" class="st21"/></g></g><line x1="379.5" x2="408.5" y1="46" y2="46" class="st57"/><line x1="379" x2="397" y1="52" y2="52" class="st57"/><circle cx="377.5" cy="86.5" r="11.5" class="st23"/><circle cx="381.1" cy="84.1" r="1.5" class="st14"/><circle cx="374" cy="84" r="1.5" class="st14"/><path d="M372,89c0,0,6,5,12,0" class="st19"/><path d="M409,68v11.8c0,2.3-1.9,4.2-4.2,4.2H402c-0.6,0-1,0.4-1,1v4.1l-3.7-2.6c-1.9-1.3-4-2.1-6.3-2.4v2	c1.8,0.2,3.6,0.9,5.1,2l5.3,3.7c0.2,0.1,0.4,0.2,0.6,0.2c0.2,0,0.3,0,0.5-0.1c0.3-0.2,0.5-0.5,0.5-0.9v-5h1.8c3.4,0,6.2-2.8,6.2-6.2	V68H409z" class="st3"/><g><g><path d="M484.5,39.8c-1-2.9-4.1-4.5-7-3.6c-2.9,1-4.5,4.1-3.6,7l14.3,44c1,2.7,3.9,4.2,6.7,3.4c3-0.9,4.7-4,3.8-6.8 C498.7,83.7,484.5,39.8,484.5,39.8z" class="st58"/><path d="M462.3,47c-1-2.9-4.1-4.5-7-3.6c-2.9,1-4.5,4.1-3.6,7l14.3,44c1,2.7,3.9,4.2,6.7,3.4c3-0.9,4.7-4,3.8-6.8 C476.6,90.9,462.3,47,462.3,47z" class="st59"/><path d="M502.5,76.2c2.9-1,4.5-4.1,3.6-7c-1-2.9-4.1-4.5-7-3.6l-44,14.3c-2.7,1-4.2,3.9-3.4,6.7c0.9,3,4,4.7,6.8,3.8 C458.6,90.5,502.5,76.2,502.5,76.2z" class="st60"/><path d="M464.2,88.7c2.8-0.9,6.6-2.1,10.5-3.4c-0.9-2.8-2.1-6.6-3.4-10.5l-10.5,3.4L464.2,88.7z" class="st61"/><path d="M486.4,81.4c4-1.3,7.7-2.5,10.5-3.4c-0.9-2.8-2.1-6.6-3.4-10.5L483,70.9L486.4,81.4z" class="st62"/><path d="M495.3,54.1c2.9-1,4.5-4.1,3.6-7c-1-2.9-4.1-4.5-7-3.6l-44,14.3c-2.7,1-4.2,3.9-3.4,6.7c0.9,3,4,4.7,6.8,3.8 C451.4,68.3,495.3,54.1,495.3,54.1z" class="st63"/><path d="M457.1,66.5c2.8-0.9,6.6-2.1,10.5-3.4c-1.3-4-2.5-7.7-3.4-10.5L453.6,56L457.1,66.5z" class="st64"/><path d="M479.2,59.3c4-1.3,7.7-2.5,10.5-3.4c-1.3-4-2.5-7.7-3.4-10.5l-10.5,3.4L479.2,59.3z" class="st65"/></g></g><rect width="8" height="8" x="432" y="599" class="st66"/><rect width="8" height="8" x="442" y="599" class="st66"/><rect width="8" height="8" x="442" y="609" class="st66"/><rect width="8" height="8" x="432" y="609" class="st66"/><rect width="18" height="3" x="484" y="601" class="st67"/><rect width="18" height="3" x="484" y="606" class="st67"/><rect width="18" height="3" x="484" y="611" class="st67"/><path d="M79,274.2v-2.5c0-2,1.6-3.6,3.6-3.6h8.9c1,0,1.9,0.4,2.6,1.1l4.1,4.1c0.7,0.7,1.6,1.1,2.6,1.1h5.5	c4.8,0,8.7,3.9,8.7,8.7v8.4c0,2-1.6,3.6-3.6,3.6H82.6c-2,0-3.6-1.6-3.6-3.6V274.2z" class="st32"/><path d="M80,274.7v-2.6c0-1.7,1.4-3.1,3.1-3.1h8.5c0.9,0,1.4,0.4,2.1,1l3.8,3.8c0.6,0.6,2.1,1.3,3,1.3h5.2	c4.5,0,8.1,3.3,8.1,7.8v8c0,1.7-1.4,3.1-3.1,3.1H83.2c-1.7,0-3.1-1.4-3.1-3.1V274.7z" class="st11"/><line x1="100" x2="89" y1="275" y2="275" class="st11"/><g><path d="M199.2,299.6h-15.4c-3.5,0-6.3-2.8-6.3-6.3v-22.9c0-3.5,2.8-6.3,6.3-6.3H205c0.3,0,0.5,0.2,0.5,0.5v28.7 C205.5,296.8,202.7,299.6,199.2,299.6z" class="st68"/><path d="M200,300.1h-17c-3.3,0-6-2.7-6-6v-24.5c0-3.3,2.7-6,6-6h19.9c1.7,0,3.1,1.4,3.1,3.1v27.4 C206,297.4,203.3,300.1,200,300.1z M183,264.6c-2.7,0-5,2.2-5,5v24.5c0,2.7,2.2,5,5,5h17c2.7,0,5-2.2,5-5v-27.4 c0-1.1-0.9-2.1-2.1-2.1H183z" class="st36"/></g><g><path d="M200.1,299.1h-17.2c-2.8,0-5-2.3-5-5v-24.6c0-2.8,2.3-5,5-5H203c1.2,0,2.2,1,2.2,2.2v27.4 C205.1,296.9,202.9,299.1,200.1,299.1z M182.9,265.5c-2.2,0-4,1.8-4,4v24.6c0,2.2,1.8,4,4,4h17.2c2.2,0,4-1.8,4-4v-27.4 c0-0.6-0.5-1.1-1.1-1.1H182.9z" class="st69"/></g><g><path d="M198.3,283.7c-0.2-0.4-0.8-0.6-1.7-0.6c-0.5,0-1.2,0.1-1.9,0.2c-1-1.1-2.1-2.8-2.9-4.4 c0.8-3.3,0.4-3.7,0.2-3.9c-0.2-0.2-0.4-0.6-0.7-0.6c-0.1,0-0.5,0.1-0.6,0.1c-0.3,0.1-0.5,0.4-0.7,0.7c-0.4,1,0.2,2.6,0.7,3.8 c-0.5,2-1.3,4.3-2.2,6.2c-2.2,1-3.3,2-3.4,2.9c0,0.3,0,0.8,0.6,1.3c0.2,0.1,0.4,0.2,0.6,0.2c0.5,0,1-0.4,1.6-1.2 c0.4-0.6,0.9-1.4,1.4-2.5c1.5-0.7,3.4-1.3,5.1-1.6c0.9,0.9,1.7,1.3,2.4,1.3c0.5,0,1-0.2,1.3-0.7C198.4,284.4,198.5,284,198.3,283.7 z M186.4,288.6c-0.3-0.2-0.3-0.3-0.2-0.4c0-0.3,0.5-0.9,1.8-1.6C186.9,288.3,186.4,288.6,186.4,288.6z M191.1,275.4 c0,0,0.6,0.6,0.1,1.9C190.3,276.4,191,275.4,191.1,275.4z M189.9,284.6c0.6-1.4,1.1-2.9,1.5-4.4c0.6,1.2,1.4,2.3,2.2,3.2 C192.4,283.7,191.1,284.1,189.9,284.6z M197.3,284.3c-0.2,0.2-0.6,0.3-0.7,0.3c-0.3,0-0.4-0.2-0.9-0.5c0.4-0.1,0.7-0.1,1-0.1 c0.5,0,0.6,0.1,0.7,0.1C197.4,284.1,197.3,284.2,197.3,284.3z" class="st36"/></g><g><path d="M275.2,299.6h-15.4c-3.5,0-6.3-2.8-6.3-6.3v-22.9c0-3.5,2.8-6.3,6.3-6.3H281c0.3,0,0.5,0.2,0.5,0.5v28.7 C281.5,296.8,278.7,299.6,275.2,299.6z" class="st70"/><path d="M276,300.1h-17c-3.3,0-6-2.7-6-6v-24.5c0-3.3,2.7-6,6-6h19.9c1.7,0,3.1,1.4,3.1,3.1v27.4 C282,297.4,279.3,300.1,276,300.1z M259,264.6c-2.7,0-5,2.2-5,5v24.5c0,2.7,2.2,5,5,5h17c2.7,0,5-2.2,5-5v-27.4 c0-1.1-0.9-2.1-2.1-2.1H259z" class="st71"/></g><g><path d="M276.1,299.1h-17.2c-2.8,0-5-2.3-5-5v-24.6c0-2.8,2.3-5,5-5H279c1.2,0,2.2,1,2.2,2.2v27.4 C281.1,296.9,278.9,299.1,276.1,299.1z M258.9,265.5c-2.2,0-4,1.8-4,4v24.6c0,2.2,1.8,4,4,4h17.2c2.2,0,4-1.8,4-4v-27.4 c0-0.6-0.5-1.1-1.1-1.1H258.9z" class="st72"/></g><g><path d="M274.5,279.9h-4.3c-0.2,0-0.4-0.2-0.4-0.4v-4c0-0.2,0.2-0.4,0.4-0.4l0,0c0,0,0.1,0,0.1,0c2.5,0,4.5,2,4.6,4.5 c0,0.1,0,0.2-0.1,0.3C274.7,279.9,274.6,279.9,274.5,279.9z M270.6,279h3.4c-0.3-1.7-1.7-3-3.4-3.1V279z" class="st71"/></g><g><path d="M267.5,289c-3.6,0-6.5-2.9-6.5-6.5c0-3.5,2.7-6.4,6.3-6.5c0.1,0,0.2,0,0.3,0.1c0.1,0.1,0.1,0.2,0.1,0.3v5.4 h5.8c0.2,0,0.4,0.2,0.4,0.4l0,0.1c0,0.1,0,0.1,0,0.2C274,286.1,271.1,289,267.5,289z M266.8,276.9c-2.8,0.3-4.9,2.7-4.9,5.6 c0,3.1,2.5,5.6,5.6,5.6c3,0,5.5-2.4,5.6-5.4h-5.8c-0.2,0-0.4-0.2-0.4-0.4V276.9z" class="st71"/></g><g><line x1="501.2" x2="488.5" y1="277.5" y2="277.5" class="st50"/><path d="M501.2,277.9h-12.7c-0.3,0-0.5-0.2-0.5-0.5c0-0.3,0.2-0.5,0.5-0.5h12.7c0.3,0,0.5,0.2,0.5,0.5 C501.6,277.7,501.4,277.9,501.2,277.9z" class="st51"/></g><g><line x1="488.5" x2="501.2" y1="282" y2="282" class="st50"/><path d="M501.2,282.5h-12.7c-0.3,0-0.5-0.2-0.5-0.5s0.2-0.5,0.5-0.5h12.7c0.3,0,0.5,0.2,0.5,0.5 S501.4,282.5,501.2,282.5z" class="st51"/></g><g><line x1="488.5" x2="501.2" y1="286.5" y2="286.5" class="st50"/><path d="M501.2,287h-12.7c-0.3,0-0.5-0.2-0.5-0.5c0-0.3,0.2-0.5,0.5-0.5h12.7c0.3,0,0.5,0.2,0.5,0.5 C501.6,286.8,501.4,287,501.2,287z" class="st51"/></g><g><line x1="488.5" x2="488.5" y1="277.5" y2="286.5" class="st50"/><path d="M488.5,287c-0.3,0-0.5-0.2-0.5-0.5v-9.1c0-0.3,0.2-0.5,0.5-0.5c0.3,0,0.5,0.2,0.5,0.5v9.1 C488.9,286.8,488.7,287,488.5,287z" class="st51"/></g><g><line x1="501.2" x2="501.2" y1="277.5" y2="286.5" class="st50"/><path d="M501.2,287c-0.3,0-0.5-0.2-0.5-0.5v-9.1c0-0.3,0.2-0.5,0.5-0.5s0.5,0.2,0.5,0.5v9.1 C501.6,286.8,501.4,287,501.2,287z" class="st51"/></g><g><line x1="494.8" x2="494.8" y1="277.5" y2="286.5" class="st50"/><path d="M494.8,287c-0.3,0-0.5-0.2-0.5-0.5v-9.1c0-0.3,0.2-0.5,0.5-0.5s0.5,0.2,0.5,0.5v9.1 C495.3,286.8,495.1,287,494.8,287z" class="st51"/></g><g><path d="M577.2,299.6h-15.4c-3.5,0-6.3-2.8-6.3-6.3v-22.9c0-3.5,2.8-6.3,6.3-6.3H583c0.3,0,0.5,0.2,0.5,0.5v28.7 C583.5,296.8,580.7,299.6,577.2,299.6z" class="st73"/><path d="M578,300.1h-17c-3.3,0-6-2.7-6-6v-24.5c0-3.3,2.7-6,6-6h19.9c1.7,0,3.1,1.4,3.1,3.1v27.4 C584,297.4,581.3,300.1,578,300.1z M561,264.6c-2.7,0-5,2.2-5,5v24.5c0,2.7,2.2,5,5,5h17c2.7,0,5-2.2,5-5v-27.4 c0-1.1-0.9-2.1-2.1-2.1H561z" class="st74"/></g><g><path d="M578.1,299.1h-17.2c-2.8,0-5-2.3-5-5v-24.6c0-2.8,2.3-5,5-5H581c1.2,0,2.2,1,2.2,2.2v27.4 C583.1,296.9,580.9,299.1,578.1,299.1z M560.9,265.5c-2.2,0-4,1.8-4,4v24.6c0,2.2,1.8,4,4,4h17.2c2.2,0,4-1.8,4-4v-27.4 c0-0.6-0.5-1.1-1.1-1.1H560.9z" class="st75"/></g><g><line x1="562.5" x2="576.5" y1="271.6" y2="271.6" class="st73"/><path d="M576.5,272.1h-14c-0.3,0-0.5-0.2-0.5-0.5c0-0.3,0.2-0.5,0.5-0.5h14c0.3,0,0.5,0.2,0.5,0.5 C577,271.9,576.8,272.1,576.5,272.1z" class="st74"/></g><g><line x1="562.5" x2="576.5" y1="275.9" y2="275.9" class="st73"/><path d="M576.5,276.4h-14c-0.3,0-0.5-0.2-0.5-0.5s0.2-0.5,0.5-0.5h14c0.3,0,0.5,0.2,0.5,0.5S576.8,276.4,576.5,276.4z" class="st74"/></g><g><line x1="562.5" x2="568" y1="280.2" y2="280.2" class="st73"/><path d="M568,280.7h-5.5c-0.3,0-0.5-0.2-0.5-0.5c0-0.3,0.2-0.5,0.5-0.5h5.5c0.3,0,0.5,0.2,0.5,0.5 C568.4,280.5,568.2,280.7,568,280.7z" class="st74"/></g><g><path d="M397,602c3.9,0,7,3.1,7,7s-3.1,7-7,7s-7-3.1-7-7S393.1,602,397,602 M397,601c-4.4,0-8,3.6-8,8s3.6,8,8,8 s8-3.6,8-8S401.4,601,397,601L397,601z" class="st76"/></g><g><path d="M395.6,611.6c0-0.1,0.1-0.3,0.1-0.5l0.8-2.8c0,0,0-0.1,0-0.1c0,0,0-0.1,0-0.1c0-0.2-0.1-0.3-0.2-0.3 c-0.1,0-0.3-0.1-0.6-0.1v-0.3c0.2,0,0.6,0,1-0.1c0.4,0,0.7-0.1,0.9-0.1l0.5-0.1l-1,3.5c-0.1,0.3-0.1,0.5-0.2,0.6 c-0.1,0.3-0.1,0.5-0.1,0.6s0,0.1,0.1,0.2c0,0,0.1,0,0.1,0c0.1,0,0.3-0.1,0.5-0.3c0.2-0.2,0.3-0.4,0.5-0.7l0.3,0.2 c-0.4,0.6-0.7,1-0.9,1.2c-0.3,0.3-0.7,0.5-1.1,0.5c-0.2,0-0.4-0.1-0.6-0.2s-0.3-0.3-0.3-0.6C395.5,612,395.6,611.8,395.6,611.6z M398.5,604.6c0.2,0.2,0.2,0.4,0.2,0.6s-0.1,0.4-0.2,0.6c-0.2,0.2-0.4,0.2-0.6,0.2c-0.2,0-0.4-0.1-0.6-0.2 c-0.2-0.2-0.2-0.4-0.2-0.6s0.1-0.4,0.2-0.6s0.4-0.2,0.6-0.2C398.1,604.4,398.3,604.5,398.5,604.6z" class="st76"/></g><line x1="251" x2="274" y1="353" y2="353" class="st5"/><line x1="255" x2="270" y1="348" y2="348" class="st5"/><g><path d="M293.8,604.2v-1.5h3.4v-2c0-1.5-1.2-2.7-2.7-2.7s-2.7,1.2-2.7,2.7v16.4l2.7,4.9l2.7-4.9v-12.9H293.8z" class="st77"/></g><polyline points="341 603 335 609 341 615" class="st78"/><polyline points="356 603 362 609 356 615" class="st78"/><g><g><path d="M343.5,614.5l4.8-14.3c0.4-1.2,1.6-2,2.8-2c0.3,0,0.6,0.1,1,0.2c1.6,0.5,2.4,2.2,1.9,3.8l-4.8,14.3l-4.6,4.2 L343.5,614.5z" class="st77"/><g><path d="M351.2,598.6c0.3,0,0.5,0,0.8,0.1c1.3,0.4,2,1.9,1.6,3.2l-4.8,14.2l-3.8,3.5l-0.9-5.1l4.1-12.1l0.7-2.2 C349.2,599.3,350.2,598.6,351.2,598.6 M351.2,597.6L351.2,597.6c-1.5,0-2.8,1-3.3,2.4l-0.7,2.2l-4.1,12.1l-0.1,0.2l0,0.3l0.9,5.1 l0.3,1.8l1.3-1.2l3.8-3.5l0.2-0.2l0.1-0.2l4.8-14.2c0.6-1.8-0.4-3.8-2.2-4.4C352,597.7,351.6,597.6,351.2,597.6L351.2,597.6z" class="st14"/></g></g><polyline points="352.3 604.1 352.3 604.1 347.1 602.4" class="st79"/></g><g><path d="M289.5,615.9h-2c-1.8,0-3.2-1.4-3.2-3.2V605c0-1.8,1.4-3.2,3.2-3.2h2v-1.3h-2c-2.5,0-4.5,2-4.5,4.5v7.7 c0,2.5,2,4.5,4.5,4.5h2V615.9z" class="st77"/><path d="M304.5,602.1c-0.8-1-2-1.6-3.3-1.6h-1.8v1.3h1.2c1.3,0,2.5,0.6,3.3,1.6l4.4,5.5l-4.3,5.4 c-0.8,1-2.1,1.6-3.4,1.6h-1.1v1.3h1.7c1.3,0,2.6-0.6,3.4-1.6l5.4-6.7L304.5,602.1z" class="st77"/></g></svg>